{
    "asset" : {
        "generator" : "Khronos glTF Blender I/O v1.6.16",
        "version" : "2.0"
    },
    "scene" : 0,
    "scenes" : [
        {
            "name" : "Scene",
            "nodes" : [
                3
            ]
        }
    ],
    "nodes" : [
        {
            "mesh" : 0,
            "name" : "Mesh_0.001"
        },
        {
            "children" : [
                0
            ],
            "name" : "nb574.obj.cleaner.materialmerger.gles"
        },
        {
            "children" : [
                1
            ],
            "name" : "RootNode (model correction matrix)",
            "rotation" : [
                -0.7071068286895752,
                0,
                0,
                0.7071068286895752
            ],
            "translation" : [
                0,
                -3.457100092418841e-06,
                0
            ]
        },
        {
            "children" : [
                2
            ],
            "name" : "shoes",
            "rotation" : [
                -0.7071068286895752,
                0,
                0,
                0.7071068286895752
            ]
        }
    ],
    "materials" : [
        {
            "doubleSided" : true,
            "name" : "material_0.001",
            "occlusionTexture" : {
                "index" : 0,
                "strength" : 0.8500000238418579
            },
            "pbrMetallicRoughness" : {}
        }
    ],
    "meshes" : [
        {
            "name" : "Mesh_0.001",
            "primitives" : [
                {
                    "attributes" : {
                        "POSITION" : 0,
                        "NORMAL" : 1,
                        "TEXCOORD_0" : 2
                    },
                    "indices" : 3,
                    "material" : 0
                }
            ]
        }
    ],
    "textures" : [
        {
            "sampler" : 0,
            "source" : 0
        }
    ],
    "images" : [
        {
            "mimeType" : "image/png",
            "name" : "material_0_occlusion",
            "uri" : "material_0_occlusion.png"
        }
    ],
    "accessors" : [
        {
            "bufferView" : 0,
            "componentType" : 5126,
            "count" : 22643,
            "max" : [
                1.6394920349121094,
                1.8488810062408447,
                4.091454982757568
            ],
            "min" : [
                -1.6394920349121094,
                -1.8488810062408447,
                -4.091454982757568
            ],
            "type" : "VEC3"
        },
        {
            "bufferView" : 1,
            "componentType" : 5126,
            "count" : 22643,
            "type" : "VEC3"
        },
        {
            "bufferView" : 2,
            "componentType" : 5126,
            "count" : 22643,
            "type" : "VEC2"
        },
        {
            "bufferView" : 3,
            "componentType" : 5123,
            "count" : 110286,
            "type" : "SCALAR"
        }
    ],
    "bufferViews" : [
        {
            "buffer" : 0,
            "byteLength" : 271716,
            "byteOffset" : 0
        },
        {
            "buffer" : 0,
            "byteLength" : 271716,
            "byteOffset" : 271716
        },
        {
            "buffer" : 0,
            "byteLength" : 181144,
            "byteOffset" : 543432
        },
        {
            "buffer" : 0,
            "byteLength" : 220572,
            "byteOffset" : 724576
        }
    ],
    "samplers" : [
        {
            "magFilter" : 9729,
            "minFilter" : 9987
        }
    ],
    "buffers" : [
        {
            "byteLength" : 945148,
            "uri" : "shoes.bin"
        }
    ]
}
